<mxfile host="app.diagrams.net" modified="2021-08-20T08:23:15.725Z" agent="5.0 (Macintosh; Intel Mac OS X 10_15_7) AppleWebKit/537.36 (KHTML, like Gecko) Chrome/92.0.4515.159 Safari/537.36" etag="Cq5rLG2qun8B8Lsm5Oit" version="14.9.8" type="github">
  <diagram id="OvtvZmqjccMrs6n_CUIy" name="Page-1">
    <mxGraphModel dx="1298" dy="703" grid="1" gridSize="10" guides="1" tooltips="1" connect="1" arrows="1" fold="1" page="1" pageScale="1" pageWidth="827" pageHeight="1169" math="0" shadow="0">
      <root>
        <mxCell id="0" />
        <mxCell id="1" parent="0" />
        <mxCell id="t36t5-ObEeldPUHDR5wi-1" value="" style="group" parent="1" vertex="1" connectable="0">
          <mxGeometry x="90" y="220" width="300" height="90" as="geometry" />
        </mxCell>
        <mxCell id="t36t5-ObEeldPUHDR5wi-2" value="DataSource = List&lt;Employee&gt;" style="rounded=1;whiteSpace=wrap;fontFamily=&quot;Segoe UI&quot;,&quot;Helvetica Neue&quot;,Helvetica,Arial,sans-serif;;strokeWidth=3;arcSize=50;imageHeight=24;fontColor=#FFF;strokeColor=none;fontSize=14;spacing=2;verticalAlign=bottom;resizable=1;resizeHeight=1;resizeWidth=1;spacingBottom=16;fillColor=#FF7200;movableLabel=1;" parent="t36t5-ObEeldPUHDR5wi-1" vertex="1">
          <mxGeometry width="300" height="90" as="geometry" />
        </mxCell>
        <mxCell id="t36t5-ObEeldPUHDR5wi-3" value="&lt;font color=&quot;#ff7200&quot;&gt;Employees&lt;/font&gt;" style="rounded=1;whiteSpace=wrap;html=1;fontSize=14;strokeWidth=3;gradientColor=#ffffff;fillColor=#FFF;strokeColor=none;fontColor=#000;arcSize=50;" parent="t36t5-ObEeldPUHDR5wi-1" vertex="1">
          <mxGeometry x="90" y="16" width="120" height="30" as="geometry" />
        </mxCell>
        <mxCell id="t36t5-ObEeldPUHDR5wi-4" value="" style="group" parent="1" vertex="1" connectable="0">
          <mxGeometry x="90" y="370" width="300" height="130" as="geometry" />
        </mxCell>
        <mxCell id="t36t5-ObEeldPUHDR5wi-5" value="• ID, FirstName, LastName,&#xa;       Department, Display Text. •" style="rounded=1;whiteSpace=wrap;fontFamily=&quot;Segoe UI&quot;,&quot;Helvetica Neue&quot;,Helvetica,Arial,sans-serif;;strokeWidth=3;arcSize=50;imageHeight=24;fontColor=#FFF;strokeColor=none;fontSize=14;spacing=2;verticalAlign=bottom;resizable=1;resizeHeight=1;resizeWidth=1;spacingBottom=16;fillColor=#FF7200;movableLabel=1;" parent="t36t5-ObEeldPUHDR5wi-4" vertex="1">
          <mxGeometry width="300" height="110" as="geometry">
            <mxPoint x="-2" as="offset" />
          </mxGeometry>
        </mxCell>
        <mxCell id="t36t5-ObEeldPUHDR5wi-6" value="&lt;font color=&quot;#ff7200&quot;&gt;Employees&lt;/font&gt;" style="rounded=1;whiteSpace=wrap;html=1;fontSize=14;strokeWidth=3;gradientColor=#ffffff;fillColor=#FFF;strokeColor=none;fontColor=#000;arcSize=50;" parent="t36t5-ObEeldPUHDR5wi-4" vertex="1">
          <mxGeometry x="90" y="16" width="120" height="30" as="geometry" />
        </mxCell>
        <mxCell id="t36t5-ObEeldPUHDR5wi-9" style="edgeStyle=orthogonalEdgeStyle;rounded=0;orthogonalLoop=1;jettySize=auto;html=1;entryX=0.5;entryY=0;entryDx=0;entryDy=0;fontSize=14;fontColor=#000;startArrow=classic;startFill=1;dashed=1;strokeWidth=2;strokeColor=#9c9c9c;" parent="1" target="t36t5-ObEeldPUHDR5wi-5" edge="1">
          <mxGeometry relative="1" as="geometry">
            <mxPoint x="240" y="310" as="sourcePoint" />
          </mxGeometry>
        </mxCell>
        <mxCell id="t36t5-ObEeldPUHDR5wi-10" value="Data Source" style="text;strokeColor=none;fillColor=none;html=1;fontSize=24;fontStyle=1;verticalAlign=middle;align=center;fontFamily=&#39;Open Sans Condensed&#39;,&#39;HelveticaNeue-CondensedBold&#39;,Helvetica,&#39;Arial Narrow&#39;,Calibri,Arial,&#39;Lucida Grande&#39;,sans-serif;;fontSource=https%3A%2F%2Ffonts.googleapis.com%2Fcss%3Ffamily%3D&#39;Open%2BSans%2BCondensed&#39;%252C&#39;HelveticaNeue-CondensedBold&#39;%252CHelvetica%252C&#39;Arial%2BNarrow&#39;%252CCalibri%252CArial%252C&#39;Lucida%2BGrande&#39;%252Csans-serif%253B;fontColor=#7b7b7b;" parent="1" vertex="1">
          <mxGeometry x="190" y="150" width="100" height="40" as="geometry" />
        </mxCell>
        <mxCell id="t36t5-ObEeldPUHDR5wi-11" value="" style="rounded=0;whiteSpace=wrap;html=1;shadow=0;glass=0;sketch=0;fontFamily=Open Sans;fontSource=https%3A%2F%2Ffonts.googleapis.com%2Fcss%3Ffamily%3DOpen%2BSans;fontSize=14;fontColor=#000000;strokeColor=#DEDEDE;strokeWidth=3;fillColor=#ffffff;gradientColor=none;align=left;verticalAlign=bottom;connectable=0;" parent="1" vertex="1">
          <mxGeometry x="620" y="130" width="460" height="190" as="geometry" />
        </mxCell>
        <mxCell id="t36t5-ObEeldPUHDR5wi-12" style="edgeStyle=orthogonalEdgeStyle;rounded=0;orthogonalLoop=1;jettySize=auto;html=1;entryX=0.304;entryY=1.011;entryDx=0;entryDy=0;entryPerimeter=0;dashed=1;fontFamily=&quot;Segoe UI&quot;,&quot;Helvetica Neue&quot;,Helvetica,Arial,sans-serif;fontSource=https%3A%2F%2Ffonts.googleapis.com%2Fcss%3Ffamily%3DOpen%2BSans;fontSize=15;fontColor=#606060;startArrow=classic;startFill=1;strokeColor=#9c9c9c;strokeWidth=2;" parent="1" source="t36t5-ObEeldPUHDR5wi-13" target="t36t5-ObEeldPUHDR5wi-11" edge="1">
          <mxGeometry relative="1" as="geometry" />
        </mxCell>
        <mxCell id="t36t5-ObEeldPUHDR5wi-13" value="&lt;p style=&quot;line-height: 200% ; font-size: 13px&quot;&gt;&lt;font color=&quot;#606060&quot; face=&quot;Segoe UI, Helvetica Neue, Helvetica, Arial, sans-serif&quot;&gt;John Heart (Electronics Dept.)&lt;br&gt;Samantha Bright (Motors Dept.)&lt;br&gt;Arthur Miller (Software Dept.)&lt;br&gt;Robert Reagan (Electronics Dept.)&lt;br&gt;Greta Sims (Motors Dept.)&lt;br&gt;Brett Wade (Software Dept.)&lt;br&gt;Sandra Johnson (Electronics Dept.)&lt;br&gt;Edward Holmes (Motos Dept.)&lt;/font&gt;&lt;/p&gt;" style="rounded=0;shadow=0;glass=0;sketch=0;fontFamily=Open Sans;fontSource=https%3A%2F%2Ffonts.googleapis.com%2Fcss%3Ffamily%3DOpen%2BSans;fontSize=14;fontColor=#000000;strokeColor=#DEDEDE;strokeWidth=3;fillColor=#ffffff;gradientColor=none;align=left;verticalAlign=bottom;whiteSpace=wrap;html=1;spacingTop=0;spacingLeft=12;spacingBottom=0;overflow=hidden;noLabel=0;resizable=1;movable=1;spacing=0;movableLabel=1;" parent="1" vertex="1">
          <mxGeometry x="620" y="420" width="280" height="190" as="geometry">
            <mxPoint x="2" y="-7" as="offset" />
          </mxGeometry>
        </mxCell>
        <mxCell id="t36t5-ObEeldPUHDR5wi-14" style="edgeStyle=orthogonalEdgeStyle;rounded=0;orthogonalLoop=1;jettySize=auto;html=1;entryX=0.848;entryY=1.011;entryDx=0;entryDy=0;entryPerimeter=0;dashed=1;fontFamily=&quot;Segoe UI&quot;,&quot;Helvetica Neue&quot;,Helvetica,Arial,sans-serif;fontSource=https%3A%2F%2Ffonts.googleapis.com%2Fcss%3Ffamily%3DOpen%2BSans;fontSize=15;fontColor=#606060;startArrow=classic;startFill=1;strokeColor=#9c9c9c;strokeWidth=2;" parent="1" source="t36t5-ObEeldPUHDR5wi-15" target="t36t5-ObEeldPUHDR5wi-11" edge="1">
          <mxGeometry relative="1" as="geometry" />
        </mxCell>
        <mxCell id="t36t5-ObEeldPUHDR5wi-15" value="" style="rounded=0;whiteSpace=wrap;html=1;shadow=0;glass=0;sketch=0;fontFamily=Open Sans;fontSource=https%3A%2F%2Ffonts.googleapis.com%2Fcss%3Ffamily%3DOpen%2BSans;fontSize=14;fontColor=#000000;strokeColor=#DEDEDE;strokeWidth=3;fillColor=#ffffff;gradientColor=none;align=left;verticalAlign=bottom;" parent="1" vertex="1">
          <mxGeometry x="940" y="420" width="140" height="190" as="geometry" />
        </mxCell>
        <mxCell id="t36t5-ObEeldPUHDR5wi-16" value="&lt;font data-font-src=&quot;https://fonts.googleapis.com/css?family=Open+Sans&quot;&gt;Code&lt;/font&gt;" style="text;strokeColor=none;fillColor=none;html=1;fontSize=24;fontStyle=1;verticalAlign=middle;align=center;fontFamily=Open Sans;;fontSource=http%3A%2F%2Ffonts.googleapis.com%2Fcss%3Ffamily%3DOpen%2BSans%3ACondensed;fontColor=#7b7b7b;" parent="1" vertex="1">
          <mxGeometry x="800" y="60" width="100" height="40" as="geometry" />
        </mxCell>
        <mxCell id="t36t5-ObEeldPUHDR5wi-17" value="UI" style="text;strokeColor=none;fillColor=none;html=1;fontSize=24;fontStyle=1;verticalAlign=middle;align=center;fontFamily=&#39;Open Sans Condensed&#39;,&#39;HelveticaNeue-CondensedBold&#39;,Helvetica,&#39;Arial Narrow&#39;,Calibri,Arial,&#39;Lucida Grande&#39;,sans-serif;;fontSource=https%3A%2F%2Ffonts.googleapis.com%2Fcss%3Ffamily%3D&#39;Open%2BSans%2BCondensed&#39;%252C&#39;HelveticaNeue-CondensedBold&#39;%252CHelvetica%252C&#39;Arial%2BNarrow&#39;%252CCalibri%252CArial%252C&#39;Lucida%2BGrande&#39;%252Csans-serif%253B;fontColor=#7b7b7b;" parent="1" vertex="1">
          <mxGeometry x="800" y="350" width="100" height="40" as="geometry" />
        </mxCell>
        <mxCell id="t36t5-ObEeldPUHDR5wi-18" style="edgeStyle=orthogonalEdgeStyle;rounded=0;orthogonalLoop=1;jettySize=auto;html=1;entryX=0.272;entryY=0;entryDx=0;entryDy=0;entryPerimeter=0;dashed=1;fontFamily=Open Sans;fontSource=https%3A%2F%2Ffonts.googleapis.com%2Fcss%3Ffamily%3DOpen%2BSans;fontSize=14;fontColor=#000000;startArrow=classic;startFill=1;strokeWidth=2;strokeColor=#9C9C9C;" parent="1" source="t36t5-ObEeldPUHDR5wi-2" target="t36t5-ObEeldPUHDR5wi-11" edge="1">
          <mxGeometry relative="1" as="geometry">
            <Array as="points">
              <mxPoint x="430" y="265" />
              <mxPoint x="430" y="70" />
              <mxPoint x="745" y="70" />
            </Array>
          </mxGeometry>
        </mxCell>
        <mxCell id="t36t5-ObEeldPUHDR5wi-24" style="edgeStyle=orthogonalEdgeStyle;rounded=0;orthogonalLoop=1;jettySize=auto;html=1;entryX=0.074;entryY=0.38;entryDx=0;entryDy=0;dashed=1;fontFamily=&quot;Segoe UI&quot;,&quot;Helvetica Neue&quot;,Helvetica,Arial,sans-serif;fontSource=https%3A%2F%2Ffonts.googleapis.com%2Fcss%3Ffamily%3DOpen%2BSans;fontSize=15;fontColor=#606060;startArrow=none;startFill=0;strokeColor=#9c9c9c;strokeWidth=2;entryPerimeter=0;" parent="1" target="t36t5-ObEeldPUHDR5wi-42" edge="1">
          <mxGeometry relative="1" as="geometry">
            <Array as="points">
              <mxPoint x="120" y="436" />
              <mxPoint x="120" y="520" />
              <mxPoint x="460" y="520" />
              <mxPoint x="460" y="198" />
              <mxPoint x="673" y="198" />
            </Array>
            <mxPoint x="135" y="436" as="sourcePoint" />
            <mxPoint x="660" y="198" as="targetPoint" />
          </mxGeometry>
        </mxCell>
        <mxCell id="t36t5-ObEeldPUHDR5wi-25" style="edgeStyle=orthogonalEdgeStyle;rounded=0;orthogonalLoop=1;jettySize=auto;html=1;dashed=1;fontFamily=&quot;Segoe UI&quot;,&quot;Helvetica Neue&quot;,Helvetica,Arial,sans-serif;fontSource=https%3A%2F%2Ffonts.googleapis.com%2Fcss%3Ffamily%3DOpen%2BSans;fontSize=15;fontColor=#606060;startArrow=none;startFill=0;strokeColor=#9c9c9c;strokeWidth=2;" parent="1" edge="1">
          <mxGeometry relative="1" as="geometry">
            <Array as="points">
              <mxPoint x="550" y="453" />
              <mxPoint x="550" y="220" />
            </Array>
            <mxPoint x="349" y="453" as="sourcePoint" />
            <mxPoint x="673" y="221" as="targetPoint" />
          </mxGeometry>
        </mxCell>
        <mxCell id="t36t5-ObEeldPUHDR5wi-26" value="Selected Values:&lt;br&gt;&lt;span style=&quot;font-weight: normal ; line-height: 170%&quot;&gt;0&lt;br&gt;1&lt;/span&gt;" style="text;html=1;strokeColor=none;fillColor=none;align=left;verticalAlign=middle;whiteSpace=wrap;rounded=0;shadow=0;glass=0;sketch=0;fontFamily=&quot;Segoe UI&quot;,&quot;Helvetica Neue&quot;,Helvetica,Arial,sans-serif;fontSource=https%3A%2F%2Ffonts.googleapis.com%2Fcss%3Ffamily%3DOpen%2BSans;fontSize=14;fontColor=#606060;fontStyle=1" parent="1" vertex="1">
          <mxGeometry x="950" y="450" width="110" height="20" as="geometry" />
        </mxCell>
        <mxCell id="t36t5-ObEeldPUHDR5wi-27" value="&lt;font&gt;DisplayText&lt;/font&gt;" style="rounded=1;whiteSpace=wrap;html=1;fontSize=14;strokeWidth=3;strokeColor=none;arcSize=50;fontColor=#FFF;fillColor=#9C9C9C;" parent="1" vertex="1">
          <mxGeometry x="500" y="300" width="100" height="30" as="geometry" />
        </mxCell>
        <mxCell id="t36t5-ObEeldPUHDR5wi-28" value="&lt;font&gt;ID&lt;/font&gt;" style="rounded=1;whiteSpace=wrap;html=1;fontSize=14;strokeWidth=3;strokeColor=none;arcSize=50;fontColor=#FFF;fillColor=#9C9C9C;" parent="1" vertex="1">
          <mxGeometry x="430" y="340" width="60" height="30" as="geometry" />
        </mxCell>
        <mxCell id="t36t5-ObEeldPUHDR5wi-29" value="&lt;font&gt;DisplayText&lt;/font&gt;" style="rounded=1;whiteSpace=wrap;html=1;fontSize=14;strokeWidth=3;strokeColor=none;arcSize=50;fontColor=#FFF;fillColor=#9C9C9C;" parent="1" vertex="1">
          <mxGeometry x="710" y="355" width="100" height="30" as="geometry" />
        </mxCell>
        <mxCell id="t36t5-ObEeldPUHDR5wi-30" value="&lt;font&gt;ID&lt;/font&gt;" style="rounded=1;whiteSpace=wrap;html=1;fontSize=14;strokeWidth=3;strokeColor=none;arcSize=50;fontColor=#FFF;fillColor=#9C9C9C;" parent="1" vertex="1">
          <mxGeometry x="980" y="355" width="60" height="30" as="geometry" />
        </mxCell>
        <mxCell id="t36t5-ObEeldPUHDR5wi-42" value="&lt;p style=&quot;line-height: 150%&quot;&gt;&lt;span style=&quot;color: rgb(96 , 96 , 96) ; font-size: 15px&quot;&gt;&amp;lt;DxListBox Data=&quot;@Employees.DataSource&quot;&lt;br style=&quot;font-size: 15px&quot;&gt;&lt;/span&gt;&lt;span style=&quot;color: rgb(96 , 96 , 96) ; font-size: 15px ; text-align: center&quot;&gt;&lt;span style=&quot;white-space: pre ; font-size: 15px&quot;&gt; &lt;span style=&quot;white-space: pre&quot;&gt; &lt;span style=&quot;white-space: pre&quot;&gt;	&lt;/span&gt;&lt;/span&gt;&lt;/span&gt;ValueFieldName=&quot;@nameof(Employee.ID)&quot;&lt;br style=&quot;font-size: 15px&quot;&gt;&lt;/span&gt;&lt;span style=&quot;color: rgb(96 , 96 , 96) ; font-size: 15px ; text-align: center&quot;&gt;&lt;span style=&quot;white-space: pre ; font-size: 15px&quot;&gt; &lt;span style=&quot;white-space: pre&quot;&gt; &lt;span style=&quot;white-space: pre&quot;&gt;	&lt;/span&gt;&lt;/span&gt;&lt;/span&gt;TextFieldName=&quot;@nameof(Employee.DisplayText)&quot;&lt;br style=&quot;font-size: 15px&quot;&gt;&lt;/span&gt;&lt;span style=&quot;color: rgb(96 , 96 , 96) ; font-size: 15px&quot;&gt;&lt;span style=&quot;white-space: pre ; font-size: 15px&quot;&gt; &lt;span style=&quot;white-space: pre&quot;&gt;	&lt;/span&gt;&lt;/span&gt;@bind-Values=&quot;@Values&quot;&amp;gt;&lt;br style=&quot;font-size: 15px&quot;&gt;&lt;/span&gt;&lt;span style=&quot;color: rgb(96 , 96 , 96) ; font-size: 15px&quot;&gt;&amp;lt;DxListBox Data&amp;gt;&lt;/span&gt;&lt;span style=&quot;color: rgb(96 , 96 , 96) ; font-size: 15px&quot;&gt;&lt;br style=&quot;font-size: 15px&quot;&gt;&lt;/span&gt;&lt;/p&gt;" style="text;html=1;strokeColor=none;fillColor=none;align=left;verticalAlign=top;whiteSpace=wrap;rounded=0;comic=0;fontColor=#7b7b7b;snapToPoint=0;fixDash=0;autosize=1;container=0;dropTarget=0;expand=1;recursiveResize=0;fontFamily=&quot;Segoe UI&quot;,&quot;Helvetica Neue&quot;,Helvetica,Arial,sans-serif;fontSize=15;spacingTop=0;spacing=2;connectable=0;" parent="1" vertex="1">
          <mxGeometry x="644" y="142" width="390" height="150" as="geometry" />
        </mxCell>
      </root>
    </mxGraphModel>
  </diagram>
</mxfile>
